<?xml version="1.0" encoding="iso-8859-1"?>
<!-- Generator: Adobe Illustrator 19.0.0, SVG Export Plug-In . SVG Version: 6.00 Build 0)  -->
<svg version="1.1" id="Layer_1" xmlns="http://www.w3.org/2000/svg" xmlns:xlink="http://www.w3.org/1999/xlink" x="0px" y="0px"
	 viewBox="0 0 447.969 447.969" style="enable-background:new 0 0 447.969 447.969;" xml:space="preserve">
<g transform="translate(0 -1020.36)">
	<g shape-rendering="auto" image-rendering="auto" color-rendering="auto" color-interpolation="sRGB">
		<path style="fill:#5A3392;" d="M327.312,1036.337c-14.316,0-28.617,2.606-40.687,7.782c-18.05,7.741-34.386,26.089-47.344,42.407
			c-8.948,11.268-11.719,15.971-15.25,21.375c-3.524-5.395-6.255-10.086-15.219-21.375c-12.958-16.318-29.325-34.666-47.375-42.406
			c-12.07-5.176-26.411-7.75-40.75-7.75c-14.339,0-28.68,2.576-40.75,7.75c-32.884,14.104-59.297,44.865-72.625,78.188
			c-9.75,24.369-9.75,53.816,0,78.188c9.302,23.254,26.13,49.395,45.969,75.938H32.125c-4.41-0.283-8.214,3.063-8.497,7.473
			c-0.283,4.408,3.062,8.213,7.472,8.496c0.341,0.021,0.684,0.021,1.025,0h33.5c7.791,9.863,15.851,19.658,24.031,29.375
			l19.781-14.313l9.312,12.844L100,1333.87c1.866,2.146,3.679,4.34,5.563,6.467c1.363,1.535,2.699,2.912,4.063,4.438l36.281-26.281
			l9.313,12.846l-34.844,25.217c35.921,39.314,70.324,73.094,87.25,89.25c9.143,8.729,23.7,8.729,32.844,0
			c19.261-18.385,60.987-59.129,102.031-105.469c13.807-15.588,27.136-31.744,39.906-47.936h33.438
			c4.41,0.283,8.214-3.063,8.497-7.473c0.283-4.408-3.062-8.213-7.472-8.496c-0.341-0.021-0.684-0.021-1.025,0H394.75
			c19.808-26.543,36.604-52.682,45.906-75.938c9.75-24.371,9.75-53.818,0-78.188c-13.328-33.322-39.741-64.084-72.625-78.188
			C355.961,1038.944,341.629,1036.338,327.312,1036.337L327.312,1036.337z"/>
		<path style="fill:#FB9761;" d="M120.685,1052.833c12.48,0,24.964,1.996,34.375,6.031c12.329,5.291,28.901,22.049,41.219,37.563
			c12.318,15.512,20.906,29.406,20.906,29.406c2.331,3.754,7.264,4.906,11.018,2.576c1.045-0.648,1.927-1.531,2.576-2.576
			c0,0,8.682-13.895,21-29.406c12.318-15.512,28.796-32.273,41.125-37.563c18.822-8.072,50.022-8.072,68.844,0
			c27.874,11.955,52.316,39.742,64.156,69.342c8.046,20.111,8.046,46.137,0,66.252c-9.433,23.58-28.844,52.51-51.562,81.969h-46.375
			c-17.625,0-34.179,8.242-44.75,22.344l-22.906,30.469l-28.469-142.438c-0.82-4.129-4.7-6.918-8.875-6.377
			c-3.416,0.432-6.172,3-6.844,6.377l-26.469,132.623l-38.125-101.813c-1.531-4.145-6.132-6.264-10.277-4.732
			c-1.904,0.701-3.469,2.102-4.379,3.916l-18.656,37.438c-6.781,13.57-20.61,22.188-35.781,22.188h-8.813
			c-22.682-29.455-42.005-58.387-51.437-81.969c-8.046-20.113-8.046-46.139,0-66.252c11.84-29.6,36.251-57.387,64.125-69.342
			c9.411-4.039,21.895-6.029,34.375-6.029V1052.833z"/>
		<path style="fill:#FFFFFF;" d="M344.393,1069.038c-4.391,0.49-7.553,4.449-7.063,8.84c0.273,2.447,1.659,4.633,3.756,5.924
			c12.179,7.809,26.561,17.691,36.732,29.646c2.851,3.375,7.899,3.801,11.275,0.951c3.376-2.852,3.801-7.9,0.951-11.275
			c-0.02-0.023-0.04-0.047-0.06-0.07c-12.139-14.27-27.831-24.738-40.276-32.717c-1.564-1.043-3.446-1.502-5.315-1.297
			L344.393,1069.038z"/>
	</g>
	<path style="fill:#FFFFFF;" d="M408.016,1132.38c0,4.418-3.582,8-8,8s-8-3.582-8-8l0,0c0-4.418,3.582-8,8-8h0
		C404.435,1124.38,408.016,1127.962,408.016,1132.38z"/>
	<path shape-rendering="auto" image-rendering="auto" color-rendering="auto" color-interpolation="sRGB" style="fill:#EE746C;" d="
		M223.936,1229.177l24.187,120.719c0.791,4.348,4.956,7.23,9.303,6.439c2.007-0.365,3.799-1.482,5.009-3.125l33.531-44.75
		c7.558-10.084,19.399-16.063,32-16.063h34.062c-10.203,12.6-20.796,25.154-31.562,37.313
		c-40.563,45.797-82.063,86.336-101.125,104.531c-2.817,2.691-7.934,2.691-10.75,0c-19.062-18.193-60.531-58.734-101.094-104.531
		c-10.838-12.236-21.499-24.879-31.75-37.563c19.879-1.184,37.774-12.756,46.75-30.717l10.531-21.002l41.563,110.781
		c1.674,4.09,6.346,6.047,10.435,4.373c2.431-0.994,4.219-3.119,4.784-5.686l24.125-120.719L223.936,1229.177z"/>
</g>
<g>
</g>
<g>
</g>
<g>
</g>
<g>
</g>
<g>
</g>
<g>
</g>
<g>
</g>
<g>
</g>
<g>
</g>
<g>
</g>
<g>
</g>
<g>
</g>
<g>
</g>
<g>
</g>
<g>
</g>
</svg>
