<?xml version="1.0" encoding="iso-8859-1"?>
<!-- Generator: Adobe Illustrator 19.0.0, SVG Export Plug-In . SVG Version: 6.00 Build 0)  -->
<svg version="1.1" id="Layer_1" xmlns="http://www.w3.org/2000/svg" xmlns:xlink="http://www.w3.org/1999/xlink" x="0px" y="0px"
	 viewBox="0 0 512.001 512.001" style="enable-background:new 0 0 512.001 512.001;" xml:space="preserve">
<path style="fill:#FFD7A3;" d="M63.267,362.703l33.01-38.511c0,0,11.003-11.003,27.508-15.845
	c15.845-4.731,214.56-33.01,214.56-33.01s33.01-5.502,33.01,16.505c0,22.006-38.511,33.01-38.511,33.01L222.812,352.36
	c0,0-16.505,4.841-16.505,15.845l22.006,16.505l132.037,0.66c0,0,38.511-6.162,88.024-66.679
	c44.563-54.576,55.016-5.502,55.016-5.502s-44.013,105.189-121.034,121.694s-258.573,10.343-258.573,10.343L63.267,494.74H8.251
	V362.703H63.267z"/>
<path style="fill:#FE84B3;" d="M381.367,35.912c24.867,24.867,24.867,65.579,0,90.445l-80.322,80.432
	c-24.867,24.757-65.578,24.757-90.445,0l-80.322-80.432c-24.867-24.867-24.867-65.579,0-90.445s65.468-24.867,90.335,0l35.21,35.21
	l35.21-35.21C315.899,11.044,356.5,11.044,381.367,35.912z"/>
<path style="fill:#F06CA5;" d="M177.124,17.422c-16.924-0.442-33.986,5.629-46.846,18.49c-24.867,24.867-24.867,65.579,0,90.445
	l80.322,80.432c24.867,24.757,65.578,24.757,90.445,0l25.533-25.568C254.239,153.451,198.341,92.763,177.124,17.422z"/>
<path style="fill:#FFE1B2;" d="M87.82,334.059l-24.552,28.645H8.251v132.037h55.016l60.517-49.514c0,0,40.002,1.357,90.415,1.092
	C157.889,428.366,112.131,387.188,87.82,334.059z"/>
<rect x="55.016" y="423.216" style="fill:#FFFFFF;" width="16.505" height="22.005"/>
<path d="M511.462,311.47c-0.117-0.547-1.219-5.495-4.063-10.937c-4.279-8.185-10.396-13.446-17.688-15.21
	c-13.9-3.361-29.515,5.844-47.723,28.142c-43.439,53.094-77.936,62.6-82.444,63.648l-128.462-0.641l-14.916-11.187
	c2.211-2.173,6.215-4.148,8.845-4.968l109.832-27.457l0.266-0.07c4.554-1.303,44.496-13.505,44.496-40.945
	c0-7.404-2.76-13.657-7.981-18.08c-11.667-9.881-31.775-7.032-34.532-6.582c-20.818,2.963-199.72,28.497-215.632,33.248
	c-18.316,5.373-30.511,17.418-31.02,17.927L59.472,354.45H0v148.542h66.214l60.406-49.424c21.652,0.63,150.777,3.861,229.252-5.999
	l-2.056-16.376c-84.131,10.569-228.304,5.834-229.751,5.784l-3.103-0.106l-60.64,49.616H16.505V370.955h38.511v41.262h16.505
	v-46.462l30.767-35.896c1.38-1.296,10.767-9.764,23.859-13.604c11.192-3.342,133.728-21.414,213.362-32.748l0.194-0.03
	c4.869-0.809,16.471-1.175,21.256,2.878c0.999,0.846,2.145,2.234,2.145,5.486c0,12.751-23.869,22.551-32.405,25.04l-109.885,27.472
	l-0.321,0.087c-0.534,0.157-5.362,1.622-10.312,4.723c-10.02,6.278-12.122,13.82-12.122,19.041v4.126l27.489,20.617l135.441,0.677
	l0.668-0.107c1.699-0.272,42.194-7.372,93.113-69.609c18.986-23.253,28.553-23.142,31.033-22.552
	c4.526,1.075,7.504,7.25,8.842,11.202C487.42,328.4,446.12,412.779,380.629,426.814l3.458,16.138
	c80.317-17.212,125.052-122.121,126.918-126.579l0.996-2.38L511.462,311.47z"/>
<path d="M204.777,212.637c14.075,14.011,32.556,21.018,51.045,21.016c18.483-0.001,36.973-7.007,51.045-21.016l-11.645-11.697
	c-21.726,21.629-57.075,21.629-78.784,0.018l-80.327-80.435c-21.718-21.719-21.718-57.057,0-78.776
	c10.468-10.468,24.436-16.233,39.332-16.233s28.865,5.765,39.333,16.234l41.045,41.044l41.045-41.044
	c10.468-10.47,24.437-16.234,39.333-16.234c14.896,0,28.864,5.765,39.333,16.234c21.718,21.717,21.718,57.056-0.004,78.778
	l-54.72,54.795l11.679,11.663l54.717-54.791c28.153-28.154,28.153-73.962,0-102.116C373.619,16.49,355.505,9.009,336.201,9.009
	s-37.417,7.482-51.003,21.067l-29.376,29.375l-29.375-29.373C212.861,16.491,194.747,9.01,175.444,9.01s-37.417,7.482-51.003,21.067
	c-28.153,28.154-28.153,73.962-0.003,102.113L204.777,212.637z"/>
<path style="fill:#FFFFFF;" d="M154.043,87.625h-16.505c0-16.427,4.837-28.404,14.376-35.6c14.491-10.931,33.837-5.576,34.655-5.344
	l-4.495,15.882c-0.123-0.032-12.414-3.313-20.282,2.686C156.651,69.17,154.043,76.699,154.043,87.625z"/>
<g>
</g>
<g>
</g>
<g>
</g>
<g>
</g>
<g>
</g>
<g>
</g>
<g>
</g>
<g>
</g>
<g>
</g>
<g>
</g>
<g>
</g>
<g>
</g>
<g>
</g>
<g>
</g>
<g>
</g>
</svg>
